<svg xmlns="http://www.w3.org/2000/svg" viewBox="0 0 1037.45 897.72"><defs><style>.cls-1{fill:#5d6160;}.cls-2{fill:#3c88b3;}.cls-2,.cls-4{opacity:0.4;}.cls-3{fill:#5a7477;}.cls-4{fill:#a5e5d8;}</style></defs><g id="Layer_2" data-name="Layer 2"><g id="artwork"><path id="back" class="cls-1" d="M278.51,0c-3.77,74.27,1.55,100.18,10.44,102.09,14.66,3.14,35.7-59.65,51.88-55.85,15.23,3.58-.71,59.73,34.18,110.58,16.65,24.26,26.5,20.53,34.18,40.21,17.71,45.37-23.33,94.21-10.05,104.54,8.72,6.79,24.63-15.74,46.24-12.06,35.6,6.07,32.2,74,68.36,86.45,33.74,11.64,78-33.22,108.56-64.33,32.72-33.29,59.27-60.29,64.34-100.53,2.25-17.85,0-35.93,13.57-50.87,11.48-12.62,24.27-12,40.71-19.5,16.19-7.38,36.93-23.09,54.28-60.31l242.25,490.07H0Q139.26,285.25,278.51,0Z"/><path class="cls-2" d="M794.42,897.72A647,647,0,0,1,609.76,861c-88.62-31.75-116-64-179.22-75.82-48.67-9.14-123.63-7.19-227.48,55.14L0,570.49H1037.45Z"/><path class="cls-2" d="M243,897.72A647,647,0,0,0,427.69,861c88.62-31.75,116-64,179.22-75.82,48.67-9.14,123.63-7.19,227.48,55.14l203.06-269.78H0Z"/><path id="mid" class="cls-3" d="M225.1,108.83A261.16,261.16,0,0,1,266.92,166c40.61,75.39,15.85,121.39,56,178.69,21.79,31.06,63,66,91.68,56.41,35.83-11.93,29.76-86,63-92.38,21-4,28.77,23.07,71,30.68,7.78,1.4,39.09,7,67-8.82,21.32-12.12,18-23.94,47.6-49.36,15.28-13.14,29.07-25,49.36-30,30.59-7.48,44.52,8.4,65.23,3.53,17.87-4.21,40.28-23.74,56.58-95.19l203.06,410.94H0Q112.55,339.66,225.1,108.83Z"/><path id="front" class="cls-4" d="M182.58,196c42.84,64.86,67.34,73.37,81.59,70,38.2-8.9,38.37-111.09,72.9-113.59,16.71-1.21,37.86,21.2,51.12,35.26,16.08,17,20.12,28.71,31.74,30,12.33,1.34,22.66-10.2,35.26-24.68,53.56-61.6,61.93-77.56,70.52-75.81,18.82,3.85-2,84.54,40.55,114.6,17,12,43,15.26,58,4.68,11.92-8.46,13.35-23.42,16.09-38.18,8.88-47.83,34-106.91,51.13-107.54,25.45-.94,31.29,127.54,73.69,134.46,23.91,3.9,50.08-32.41,69.27-65.69l203.06,410.94H0Z"/></g></g></svg>