<svg xmlns="http://www.w3.org/2000/svg" viewBox="0 0 281.15 167.8"><defs><style>.cls-1{fill:#b3b3b3;}.cls-2{fill:#999;}.cls-3{fill:#f7ce1e;}.cls-4{fill:#f78f1e;}.cls-5{fill:#f15a24;}.cls-6{fill:gray;}.cls-7{fill:#29abe2;}</style></defs><g id="Layer_2" data-name="Layer 2"><g id="Layer_1-2" data-name="Layer 1"><path class="cls-1" d="M50.67,105.45h-4.3a76.23,76.23,0,0,1-10-5.8,6.15,6.15,0,0,0,.11-1.15V71.18A6.45,6.45,0,0,0,36.42,70a74.56,74.56,0,0,1,9-5.33h5.24a4.09,4.09,0,0,1,3.11,1.43c-.35.68-.62,1.18-.79,1.47l1.36-.6a4,4,0,0,1,.43,1.82v31.81l-.87-.38c.17.31.47.84.84,1.58A4.12,4.12,0,0,1,50.67,105.45Z"/><path class="cls-1" d="M28.55,64.93A6.44,6.44,0,0,1,36.42,70c-1.16.81-2.23,1.62-3.21,2.44a6.46,6.46,0,0,0-7.35-2.34V68.79A4.12,4.12,0,0,1,28.55,64.93Z"/><path class="cls-1" d="M33.4,97.38c-4.26-3.52-6.92-7.18-7.55-10.87V83.16c.61-3.63,3.2-7.24,7.35-10.71a6.31,6.31,0,0,1,1.2,3.75V93.94A6.26,6.26,0,0,1,33.4,97.38Z"/><path class="cls-1" d="M30,64.67H45.45a74.56,74.56,0,0,0-9,5.33,6.44,6.44,0,0,0-7.87-5.08A4,4,0,0,1,30,64.67Z"/><path class="cls-2" d="M25.86,83.16v3.35a10.36,10.36,0,0,1-.14-1.67A9.54,9.54,0,0,1,25.86,83.16Z"/><path class="cls-3" d="M25.86,70.11v13a9.54,9.54,0,0,0-.15,1.68,10.36,10.36,0,0,0,.14,1.67V100a6.39,6.39,0,0,1-1.1-.51L9.39,90.63a6.43,6.43,0,0,1,0-11.14l15.36-8.87A6.39,6.39,0,0,1,25.86,70.11Z"/><path class="cls-1" d="M86.17,53,54.37,67a4,4,0,0,0-.57-.87,48.51,48.51,0,0,0,2.65-6.33,221.34,221.34,0,0,1,29.62-9.09C86.14,51.69,86.16,52.47,86.17,53Z"/><path class="cls-1" d="M33.4,97.38A6.44,6.44,0,0,1,25.85,100V86.51C26.48,90.2,29.14,93.86,33.4,97.38Z"/><path class="cls-1" d="M45.45,64.68c3.34-1.7,7-3.34,11-4.9a48.51,48.51,0,0,1-2.65,6.33,4.09,4.09,0,0,0-3.11-1.43Z"/><path class="cls-1" d="M54.79,100.61v.73a3.71,3.71,0,0,1,0,.47c-.37-.74-.67-1.27-.84-1.58Z"/><path class="cls-1" d="M54.79,100.61l32.29,14.26c0,.78-.07,2.27-.29,4.27a226.62,226.62,0,0,1-28.66-8.61,48.57,48.57,0,0,0-3.37-8.72,3.71,3.71,0,0,0,0-.47Z"/><path class="cls-4" d="M3.22,79.26,26.88,65.61a6.75,6.75,0,0,1,1.67-.68,4.12,4.12,0,0,0-2.69,3.86v1.32a6.39,6.39,0,0,0-1.1.51L9.4,79.49a6.43,6.43,0,0,0,0,11.14L24.75,99.5a6.39,6.39,0,0,0,1.1.51v1.32a4.1,4.1,0,0,0,1.08,2.77l-.06,0L3.21,90.4A6.43,6.43,0,0,1,3.22,79.26Z"/><path class="cls-1" d="M36.41,99.65a6.42,6.42,0,0,1-9.48,4.45,4.1,4.1,0,0,1-1.08-2.77V100a6.44,6.44,0,0,0,7.55-2.63C34.33,98.14,35.33,98.9,36.41,99.65Z"/><path class="cls-1" d="M54.37,67l-1.36.6c.17-.29.44-.79.79-1.47A4,4,0,0,1,54.37,67Z"/><path class="cls-1" d="M46.37,105.45H30a4.07,4.07,0,0,1-3-1.35,6.42,6.42,0,0,0,9.48-4.45A76.23,76.23,0,0,0,46.37,105.45Z"/><path class="cls-1" d="M50.67,105.45a4.12,4.12,0,0,0,4.09-3.64,48.57,48.57,0,0,1,3.37,8.72c-4.25-1.61-8.19-3.32-11.76-5.08Z"/><path class="cls-1" d="M54.37,67l31.8-14c0-.49,0-1.27-.1-2.27a299.11,299.11,0,0,1,62.13-8c40.53-.7,85.3,8.62,111.17,21.21a92.72,92.72,0,0,0,0,42.44c-25.91,12.43-70.77,21.5-111.2,20.69a301.15,301.15,0,0,1-61.38-7.91c.22-2,.27-3.49.29-4.27L54.79,100.61V68.8A4,4,0,0,0,54.37,67Zm166,33.31A15.38,15.38,0,1,0,205,84.9,15.39,15.39,0,0,0,220.32,100.29Z"/><path class="cls-1" d="M33.21,72.45c-4.15,3.47-6.74,7.08-7.35,10.71v-13A6.46,6.46,0,0,1,33.21,72.45Z"/><path class="cls-5" d="M259.37,63.92c13.46,6.55,21.8,14,21.78,21.34s-8.36,14.67-21.78,21.1a92.72,92.72,0,0,1,0-42.44Z"/><path class="cls-6" d="M220.33,69.53A15.38,15.38,0,1,1,205,84.9,15.38,15.38,0,0,1,220.33,69.53Zm13.26,15.38a13.26,13.26,0,1,0-13.27,13.26A13.26,13.26,0,0,0,233.59,84.91Z"/><path class="cls-7" d="M220.33,71.65A13.26,13.26,0,1,1,207.07,84.9,13.26,13.26,0,0,1,220.33,71.65Z"/><path class="cls-1" d="M86.79,119.14c-.82,7.58-4,22.5-16.86,34.45-19.67,18.3-45,13.89-47.73,13.37,1.16-.21,26.4-5.15,35.11-28.78a44.48,44.48,0,0,0,.82-27.65A226.62,226.62,0,0,0,86.79,119.14Z"/><path class="cls-1" d="M69.05,14.23c14.1,13.13,16.56,29.84,17,36.46a221.34,221.34,0,0,0-29.62,9.09,45.11,45.11,0,0,0,0-30.15C47.72,6,22.49,1,21.33.83,24,.31,49.4-4.09,69.05,14.23Z"/><path class="cls-1" d="M36.53,71.18V98.5a6.15,6.15,0,0,1-.11,1.15c-1.08-.75-2.08-1.51-3-2.27a6.26,6.26,0,0,0,1-3.44V76.2a6.31,6.31,0,0,0-1.2-3.75c1-.82,2-1.63,3.21-2.44A6.45,6.45,0,0,1,36.53,71.18Z"/></g></g></svg>