<svg xmlns="http://www.w3.org/2000/svg" viewBox="0 0 281.15 167.8"><defs><style>.cls-1{fill:#f15a24;}.cls-2{fill:#f2f2f2;}.cls-3{fill:#29abe2;}.cls-4{fill:gray;}.cls-5{fill:#666;}.cls-6{fill:#f7ce1e;}.cls-7{fill:#f78f1e;}</style></defs><g id="Layer_2" data-name="Layer 2"><g id="Layer_1-2" data-name="Layer 1"><path class="cls-1" d="M259.37,63.92c13.46,6.55,21.8,14,21.78,21.34s-8.36,14.67-21.78,21.1a92.72,92.72,0,0,1,0-42.44Z"/><path class="cls-2" d="M259.37,63.92a92.72,92.72,0,0,0,0,42.44c-25.91,12.43-70.77,21.5-111.2,20.69a301.15,301.15,0,0,1-61.38-7.91c.22-2,.27-3.49.29-4.27L54.39,100.44a12.12,12.12,0,0,0,.26-2.5V71.49a11.71,11.71,0,0,0-.8-4.28L86.17,53c0-.49,0-1.27-.1-2.27a299.11,299.11,0,0,1,62.13-8C188.73,42,233.5,51.33,259.37,63.92Zm-39.05,36.37A15.38,15.38,0,1,0,205,84.9,15.39,15.39,0,0,0,220.32,100.29Z"/><path class="cls-3" d="M233.59,84.91a13.26,13.26,0,1,1-13.26-13.26A13.27,13.27,0,0,1,233.59,84.91Z"/><path class="cls-4" d="M220.32,98.17A13.26,13.26,0,1,0,207.07,84.9,13.27,13.27,0,0,0,220.32,98.17Zm15.39-13.26a15.38,15.38,0,1,1-15.38-15.38A15.39,15.39,0,0,1,235.71,84.91Z"/><path class="cls-2" d="M54.39,100.44l32.69,14.43c0,.78-.07,2.27-.29,4.27a226.62,226.62,0,0,1-28.66-8.61,48.57,48.57,0,0,0-3.85-9.65C54.32,100.74,54.35,100.59,54.39,100.44Z"/><path class="cls-2" d="M86.17,53,53.86,67.21a4.84,4.84,0,0,0-.28-.66,47.62,47.62,0,0,0,2.87-6.77,221.34,221.34,0,0,1,29.62-9.09C86.14,51.69,86.16,52.47,86.17,53Z"/><path class="cls-2" d="M86.79,119.14c-.82,7.58-4,22.5-16.86,34.45-19.67,18.3-45,13.89-47.73,13.37,1.16-.21,26.4-5.15,35.11-28.78a44.48,44.48,0,0,0,.82-27.65A226.62,226.62,0,0,0,86.79,119.14Z"/><path class="cls-2" d="M69.05,14.23c14.1,13.13,16.56,29.84,17,36.46a221.34,221.34,0,0,0-29.62,9.09,45.11,45.11,0,0,0,0-30.15C47.72,6,22.49,1,21.33.83,24,.31,49.4-4.09,69.05,14.23Z"/><path class="cls-5" d="M54.66,71.49V97.94a12.12,12.12,0,0,1-.26,2.5l-.47-.21.36.65a12,12,0,0,1-4.08,6.37,84.49,84.49,0,0,1-13.79-7.6,6.15,6.15,0,0,0,.11-1.15V71.18A6.45,6.45,0,0,0,36.42,70a85,85,0,0,1,14-7.68,11.75,11.75,0,0,1,3.19,4.22c-.25.46-.44.81-.57,1l.85-.37A11.71,11.71,0,0,1,54.66,71.49Z"/><path class="cls-5" d="M54.39,100.44c0,.15-.07.3-.11.44l-.36-.65Z"/><path class="cls-2" d="M54.28,100.88a48.57,48.57,0,0,1,3.85,9.65c-2.78-1-5.43-2.15-7.93-3.28A12,12,0,0,0,54.28,100.88Z"/><path class="cls-5" d="M53.86,67.21l-.85.37c.13-.22.32-.57.57-1A4.84,4.84,0,0,1,53.86,67.21Z"/><path class="cls-2" d="M56.45,59.78a47.62,47.62,0,0,1-2.87,6.77,11.75,11.75,0,0,0-3.19-4.22C52.32,61.45,54.35,60.6,56.45,59.78Z"/><path class="cls-5" d="M42.67,59.49a11.9,11.9,0,0,1,7.72,2.84,85,85,0,0,0-14,7.68,6.43,6.43,0,0,0-9-4.69,12,12,0,0,1,10.28-5.84Z"/><path class="cls-5" d="M50.2,107.25a12,12,0,0,1-7.55,2.69H37.71a12.05,12.05,0,0,1-10.06-5.48,6.44,6.44,0,0,0,8.76-4.81A84.49,84.49,0,0,0,50.2,107.25Z"/><path class="cls-5" d="M36.53,71.18V98.5a6.15,6.15,0,0,1-.11,1.15c-1.08-.75-2.08-1.51-3-2.27a6.26,6.26,0,0,0,1-3.44V76.2a6.31,6.31,0,0,0-1.2-3.75c1-.82,2-1.63,3.21-2.44A6.45,6.45,0,0,1,36.53,71.18Z"/><path class="cls-5" d="M34.41,76.2V93.94a6.26,6.26,0,0,1-1,3.44c-4.82-4-7.58-8.13-7.69-12.3v-.73c.2-4,2.89-8,7.49-11.9A6.31,6.31,0,0,1,34.41,76.2Z"/><path class="cls-5" d="M33.4,97.38c.93.76,1.93,1.52,3,2.27a6.44,6.44,0,0,1-8.76,4.81A11.87,11.87,0,0,1,25.9,100,6.42,6.42,0,0,0,33.4,97.38Z"/><path class="cls-5" d="M36.42,70c-1.16.81-2.23,1.62-3.21,2.44a6.46,6.46,0,0,0-7.41-2.32,11.76,11.76,0,0,1,1.64-4.81A6.43,6.43,0,0,1,36.42,70Z"/><path class="cls-5" d="M25.8,70.13a6.46,6.46,0,0,1,7.41,2.32c-4.6,3.86-7.29,7.87-7.49,11.9V71.48A11.94,11.94,0,0,1,25.8,70.13Z"/><path class="cls-5" d="M33.4,97.38A6.42,6.42,0,0,1,25.9,100a11.13,11.13,0,0,1-.19-2.09V85.08C25.82,89.25,28.58,93.4,33.4,97.38Z"/><path class="cls-6" d="M25.8,70.13a11.94,11.94,0,0,0-.08,1.35V97.93A11.13,11.13,0,0,0,25.9,100a6.18,6.18,0,0,1-1.15-.52L9.39,90.63a6.43,6.43,0,0,1,0-11.14l15.36-8.87A6.53,6.53,0,0,1,25.8,70.13Z"/><path class="cls-7" d="M24.75,99.5a6.18,6.18,0,0,0,1.15.52,11.87,11.87,0,0,0,1.75,4.44,7.09,7.09,0,0,1-.78-.39L3.21,90.4a6.43,6.43,0,0,1,0-11.14L26.88,65.61c.19-.11.37-.2.56-.29a11.76,11.76,0,0,0-1.64,4.81,6.53,6.53,0,0,0-1,.49L9.4,79.49a6.43,6.43,0,0,0,0,11.14Z"/></g></g></svg>