<?xml version="1.0" encoding="utf-8"?>
<!-- Generator: Adobe Illustrator 24.1.2, SVG Export Plug-In . SVG Version: 6.00 Build 0)  -->
<svg version="1.1" id="Layer_1" xmlns="http://www.w3.org/2000/svg" xmlns:xlink="http://www.w3.org/1999/xlink" x="0px" y="0px"
	 viewBox="0 0 470 470" style="enable-background:new 0 0 470 470;" xml:space="preserve">
<style type="text/css">
	.st0{stroke:#000000;stroke-width:10;stroke-miterlimit:10;}
</style>
<path class="st0" d="M235,107.4c-70.5,0-127.6,57.1-127.6,127.6S164.5,362.6,235,362.6S362.6,305.5,362.6,235
	C362.5,164.6,305.4,107.5,235,107.4z M235,343c-59.7,0-108-48.4-108-108s48.4-108,108-108s108,48.4,108,108
	C343,294.6,294.6,343,235,343z"/>
<path class="st0" d="M244.8,64.7V14.8c0-5.4-4.4-9.8-9.8-9.8s-9.8,4.4-9.8,9.8v49.9c0,5.4,4.4,9.8,9.8,9.8S244.8,70.1,244.8,64.7z"
	/>
<path class="st0" d="M235,395.5c-5.4,0-9.8,4.4-9.8,9.8v49.9c0,5.4,4.4,9.8,9.8,9.8s9.8-4.4,9.8-9.8v-49.9
	C244.8,399.9,240.4,395.5,235,395.5z"/>
<path class="st0" d="M455.2,225.2h-49.9c-5.4,0-9.8,4.4-9.8,9.8s4.4,9.8,9.8,9.8h49.9c5.4,0,9.8-4.4,9.8-9.8
	S460.6,225.2,455.2,225.2z"/>
<path class="st0" d="M74.5,235c0-5.4-4.4-9.8-9.8-9.8H14.8c-5.4,0-9.8,4.4-9.8,9.8s4.4,9.8,9.8,9.8h49.9
	C70.1,244.8,74.5,240.4,74.5,235z"/>
<path class="st0" d="M362.5,121.4l34.7-34.7c3.8-3.8,3.8-10,0-13.8c-3.8-3.8-10-3.8-13.8,0l-34.7,34.7c-2.5,2.5-3.5,6.1-2.6,9.5
	c0.9,3.4,3.6,6,6.9,6.9C356.4,124.8,360,123.8,362.5,121.4z"/>
<path class="st0" d="M107.5,348.6l-34.7,34.7c-2.5,2.5-3.5,6.1-2.6,9.5s3.6,6,6.9,6.9s7-0.1,9.5-2.6l34.7-34.7
	c2.5-2.5,3.5-6.1,2.6-9.5c-0.9-3.4-3.6-6-6.9-6.9C113.6,345.2,110,346.2,107.5,348.6z"/>
<path class="st0" d="M362.5,348.6c-2.5-2.5-6.1-3.5-9.5-2.6c-3.4,0.9-6,3.6-6.9,6.9c-0.9,3.4,0.1,7,2.6,9.5l34.7,34.7
	c3.8,3.8,10,3.8,13.8,0c3.8-3.8,3.8-10,0-13.8L362.5,348.6z"/>
<path class="st0" d="M107.5,121.4c2.5,2.5,6.1,3.5,9.5,2.6c3.4-0.9,6-3.6,6.9-6.9c0.9-3.4-0.1-7-2.6-9.5L86.6,72.8
	c-3.8-3.8-10-3.8-13.8,0c-3.8,3.8-3.8,10,0,13.8L107.5,121.4z"/>
</svg>
