<svg xmlns="http://www.w3.org/2000/svg" viewBox="0 0 479.2 312"><defs><style>.cls-1{fill:#ecf1f0;}.cls-2{fill:#009bb8;}</style></defs><g id="Layer_2" data-name="Layer 2"><g id="Layer_1-2" data-name="Layer 1"><path d="M164.8,197.49a29,29,0,1,1-29-29A29,29,0,0,1,164.8,197.49Z"/><path class="cls-1" d="M479.2,200l-34.76,62.88H34.76L0,200l112.65-67.88H366.56ZM343.42,226.48a29,29,0,1,0-29-29A29,29,0,0,0,343.42,226.48Zm-207.6,0a29,29,0,1,0-29-29A29,29,0,0,0,135.82,226.48Z"/><polygon class="cls-1" points="387.12 276.88 358.5 312 120.7 312 92.08 276.88 387.12 276.88"/><path d="M372.4,197.49a29,29,0,1,1-29-29A29,29,0,0,1,372.4,197.49Z"/><path class="cls-2" d="M361.44,118.12H117.76a121.9,121.9,0,0,1,243.68,0Z"/></g></g></svg>